<?xml version="1.0" encoding="utf-8"?>
<!-- Generator: Adobe Illustrator 20.1.0, SVG Export Plug-In . SVG Version: 6.00 Build 0)  -->
<svg version="1.1" id="Layer_1" xmlns="http://www.w3.org/2000/svg" xmlns:xlink="http://www.w3.org/1999/xlink" x="0px" y="0px"
	 viewBox="0 0 80 80" style="enable-background:new 0 0 80 80;" xml:space="preserve">
<style type="text/css">
	.st0{fill:#07A5DE;}
	.st1{fill:#3EBEB0;}
	.st2{opacity:0.26;fill:#353535;enable-background:new    ;}
	.st3{fill:#353535;}
	.st4{fill:none;}
</style>
<g>
	<path class="st0" d="M38.8,45.1H17.4V10.5h21.4c9.6,0,17.3,7.7,17.3,17.3l0,0C56.1,37.4,48.4,45.1,38.8,45.1z"/>
	<path class="st1" d="M45.3,69.5H17.4V34.9h27.9c9.6,0,17.3,7.7,17.3,17.3l0,0C62.6,61.8,54.9,69.5,45.3,69.5z"/>
	<path class="st2" d="M58.4,40.9c-3.2-3.7-7.9-6-13.1-6H17.4v16h25.9C52.5,50.9,58.9,41.4,58.4,40.9z"/>
	<path class="st3" d="M38.8,45.1c6.2,0,11.6-3.3,14.7-8.2c-0.4-0.2-0.8-0.4-1.3-0.6c-0.1,0-0.2-0.1-0.3-0.1
		c-0.4-0.2-0.8-0.3-1.3-0.5h-0.1c-0.1,0-0.1,0-0.2-0.1c-0.4-0.1-0.8-0.2-1.2-0.3c-0.1,0-0.1,0-0.2,0c-0.1,0-0.2,0-0.2-0.1
		c-0.4-0.1-0.8-0.1-1.2-0.2c-0.1,0-0.2,0-0.3,0s-0.2,0-0.3,0c-0.5,0-0.9-0.1-1.4-0.1c-0.1,0-0.1,0-0.2,0H17.4v10.2
		C17.4,45.1,38.8,45.1,38.8,45.1z"/>
</g>
<rect class="st4" width="80" height="80"/>
</svg>
